<?xml version="1.0" encoding="UTF-8" standalone="no"?>
<!-- Created with Inkscape (http://www.inkscape.org/) -->

<svg
   width="500mm"
   height="200mm"
   viewBox="0 0 500 200"
   version="1.1"
   id="svg159168"
   inkscape:version="1.1.1 (3bf5ae0d25, 2021-09-20)"
   sodipodi:docname="explore-end.svg"
   xmlns:inkscape="http://www.inkscape.org/namespaces/inkscape"
   xmlns:sodipodi="http://sodipodi.sourceforge.net/DTD/sodipodi-0.dtd"
   xmlns="http://www.w3.org/2000/svg"
   xmlns:svg="http://www.w3.org/2000/svg">
  <sodipodi:namedview
     id="namedview159170"
     pagecolor="#505050"
     bordercolor="#ffffff"
     borderopacity="1"
     inkscape:pageshadow="0"
     inkscape:pageopacity="0"
     inkscape:pagecheckerboard="1"
     inkscape:document-units="px"
     showgrid="false"
     inkscape:zoom="0.48567463"
     inkscape:cx="853.45203"
     inkscape:cy="392.23791"
     inkscape:window-width="1920"
     inkscape:window-height="1017"
     inkscape:window-x="-8"
     inkscape:window-y="-8"
     inkscape:window-maximized="1"
     inkscape:current-layer="layer1" />
  <defs
     id="defs159165">
    <rect
       x="396.01213"
       y="69.884494"
       width="1200.1834"
       height="363.37132"
       id="rect162496" />
  </defs>
  <g
     inkscape:label="Layer 1"
     inkscape:groupmode="layer"
     id="layer1">
    <text
       xml:space="preserve"
       transform="matrix(0.42127815,0,0,0.42127815,-169.34455,22.053631)"
       id="text162494"
       style="font-style:normal;font-weight:normal;font-size:40px;line-height:1.25;font-family:sans-serif;text-align:center;white-space:pre;shape-inside:url(#rect162496);fill:#000000;fill-opacity:1;stroke:none"
       x="343.42773"
       y="0"><tspan
         x="654.5506"
         y="130.70682"
         id="tspan7824"><tspan
   style="font-weight:bold;font-size:66.6667px"
   id="tspan7822">Looking for more?</tspan>
</tspan><tspan
         x="587.94922"
         y="189.71135"
         id="tspan7826">You can also import from a spreadsheet,
</tspan><tspan
         x="650.88867"
         y="239.71135"
         id="tspan7828">or scan compatible QR codes from
</tspan><tspan
         x="678.76953"
         y="289.71135"
         id="tspan7830">friends who've made term lists.</tspan></text>
    <path
       sodipodi:type="star"
       style="fill:#808080"
       id="path180922"
       inkscape:flatsided="false"
       sodipodi:sides="4"
       sodipodi:cx="191.48624"
       sodipodi:cy="543.57379"
       sodipodi:r1="187.7412"
       sodipodi:r2="70.040794"
       sodipodi:arg1="0.37032343"
       sodipodi:arg2="1.1557216"
       inkscape:rounded="0.1"
       inkscape:randomized="0"
       d="m 366.50052,611.52051 c -5.31368,13.68675 -133.33443,-9.77401 -146.76975,-3.85335 -13.43533,5.92065 -82.50451,116.23459 -96.19126,110.92092 -13.68674,-5.31368 9.77401,-133.33443 3.85336,-146.76976 C 121.47222,558.383 11.158276,489.31381 16.471953,475.62707 c 5.313676,-13.68674 133.334427,9.77401 146.769747,3.85336 13.43533,-5.92065 82.50452,-116.2346 96.19126,-110.92092 13.68674,5.31367 -9.77401,133.33442 -3.85336,146.76975 5.92065,13.43532 116.2346,82.50451 110.92092,96.19125 z"
       transform="matrix(0.15996342,-0.05966056,0.06407001,0.17178616,-30.30381,80.378055)"
       inkscape:transform-center-x="-0.42112783"
       inkscape:transform-center-y="2.6990187" />
    <path
       sodipodi:type="star"
       style="fill:#808080"
       id="path180922-7"
       inkscape:flatsided="false"
       sodipodi:sides="4"
       sodipodi:cx="191.48624"
       sodipodi:cy="543.57379"
       sodipodi:r1="187.7412"
       sodipodi:r2="70.040794"
       sodipodi:arg1="0.37032343"
       sodipodi:arg2="1.1557216"
       inkscape:rounded="0.1"
       inkscape:randomized="0"
       transform="matrix(0.15996342,-0.05966056,0.06407001,0.17178616,399.78017,-45.454362)"
       inkscape:transform-center-x="-0.42112783"
       inkscape:transform-center-y="2.6990187"
       d="m 366.50052,611.52051 c -5.31368,13.68675 -133.33443,-9.77401 -146.76975,-3.85335 -13.43533,5.92065 -82.50451,116.23459 -96.19126,110.92092 -13.68674,-5.31368 9.77401,-133.33443 3.85336,-146.76976 C 121.47222,558.383 11.158276,489.31381 16.471953,475.62707 c 5.313676,-13.68674 133.334427,9.77401 146.769747,3.85336 13.43533,-5.92065 82.50452,-116.2346 96.19126,-110.92092 13.68674,5.31367 -9.77401,133.33442 -3.85336,146.76975 5.92065,13.43532 116.2346,82.50451 110.92092,96.19125 z" />
    <path
       sodipodi:type="star"
       style="fill:#cccccc"
       id="path180922-4"
       inkscape:flatsided="false"
       sodipodi:sides="4"
       sodipodi:cx="191.48624"
       sodipodi:cy="543.57379"
       sodipodi:r1="187.7412"
       sodipodi:r2="70.040794"
       sodipodi:arg1="0.37032343"
       sodipodi:arg2="1.1557216"
       inkscape:rounded="0.1"
       inkscape:randomized="0"
       transform="matrix(0.09261716,-0.03454285,0.03709587,0.09946241,30.291247,86.332389)"
       inkscape:transform-center-x="-0.24382697"
       inkscape:transform-center-y="1.5627054"
       d="m 366.50052,611.52051 c -5.31368,13.68675 -133.33443,-9.77401 -146.76975,-3.85335 -13.43533,5.92065 -82.50451,116.23459 -96.19126,110.92092 -13.68674,-5.31368 9.77401,-133.33443 3.85336,-146.76976 C 121.47222,558.383 11.158276,489.31381 16.471953,475.62707 c 5.313676,-13.68674 133.334427,9.77401 146.769747,3.85336 13.43533,-5.92065 82.50452,-116.2346 96.19126,-110.92092 13.68674,5.31367 -9.77401,133.33442 -3.85336,146.76975 5.92065,13.43532 116.2346,82.50451 110.92092,96.19125 z" />
    <path
       sodipodi:type="star"
       style="fill:#cccccc"
       id="path180922-4-6"
       inkscape:flatsided="false"
       sodipodi:sides="4"
       sodipodi:cx="191.48624"
       sodipodi:cy="543.57379"
       sodipodi:r1="187.7412"
       sodipodi:r2="70.040794"
       sodipodi:arg1="0.37032343"
       sodipodi:arg2="1.1557216"
       inkscape:rounded="0.1"
       inkscape:randomized="0"
       transform="matrix(0.09261716,-0.03454285,0.03709587,0.09946241,393.56244,17.377531)"
       inkscape:transform-center-x="-0.24382697"
       inkscape:transform-center-y="1.5627054"
       d="m 366.50052,611.52051 c -5.31368,13.68675 -133.33443,-9.77401 -146.76975,-3.85335 -13.43533,5.92065 -82.50451,116.23459 -96.19126,110.92092 -13.68674,-5.31368 9.77401,-133.33443 3.85336,-146.76976 C 121.47222,558.383 11.158276,489.31381 16.471953,475.62707 c 5.313676,-13.68674 133.334427,9.77401 146.769747,3.85336 13.43533,-5.92065 82.50452,-116.2346 96.19126,-110.92092 13.68674,5.31367 -9.77401,133.33442 -3.85336,146.76975 5.92065,13.43532 116.2346,82.50451 110.92092,96.19125 z" />
  </g>
</svg>
